<?xml version="1.0" encoding="utf-8"?>
<svg width="1000" height="1000" viewBox="0 0 165 165" version="1.1" xmlns:xlink="http://www.w3.org/1999/xlink" xmlns="http://www.w3.org/2000/svg">
  <defs>
    <path d="M165 0L165 0L165 165L0 165L0 0L165 0Z" id="path_1" />
    <clipPath id="clip_1">
      <use xlink:href="#path_1" />
    </clipPath>
  </defs>
  <g id="icon">
    <path d="M141 4C152.047 4 161 12.9528 161 24L161 141C161 152.047 152.047 161 141 161L24 161C12.9528 161 4 152.047 4 141L4 24C4 12.9528 12.9528 4 24 4L141 4Z" id="Rectangle" fill="#111827" stroke="none" />
    <g id="Group">
      <g id="shield" clip-path="url(#clip_1)" transform="scale(0.99999994 0.99999994)">
        <path d="M165 0L165 0L165 165L0 165L0 0L165 0Z" id="shield" fill="none" stroke="none" />
        <path d="M82.5 13.75L27.5 34.375L27.5 76.2438C27.5 110.962 50.9437 143.344 82.5 151.25C114.056 143.344 137.5 110.962 137.5 76.2438L137.5 34.375L82.5 13.75L82.5 13.75ZM123.75 76.2438C123.75 103.744 106.219 129.181 82.5 136.95C58.7812 129.181 41.25 103.812 41.25 76.2438L41.25 43.9313L82.5 28.4625L123.75 43.9313L123.75 76.2438L123.75 76.2438Z" id="Shape" fill="#FFFFFF" fill-rule="evenodd" stroke="none" />
      </g>
      <g id="{;}-Copy" transform="translate(41 18)">
        <g id="{;}" fill="#FFFFFF">
          <path d="M30.5938 23.8764Q34.1094 23.8764 35.5781 24.7045Q37.0625 25.5326 37.0625 27.9076Q37.0625 29.1889 36 30.0795Q34.9375 30.9701 33.0938 30.9701Q29.9531 30.9701 28.1562 31.5795Q26.375 32.1889 25.5625 33.4701Q24.7656 34.7514 24.5781 36.9233Q24.3906 39.5483 23.5469 45.6889L23.3594 47.4233Q22.5938 53.3764 16.9531 55.7514Q21.0625 57.6576 21.0625 63.1108Q21.0625 63.7514 20.9219 65.2826L20.3594 69.2514Q19.5781 74.8764 19.4531 76.2826Q19.3906 76.7358 19.3906 77.5014Q19.3906 80.1264 20.9219 81.1576Q22.4688 82.1733 26.4375 82.1733Q28.2188 82.1733 29.3125 83.142Q30.4062 84.0951 30.4062 85.5014Q30.4062 87.4858 28.7969 88.4701Q27.2031 89.4701 23.3594 89.4701Q16.9531 89.4701 13.9062 86.4545Q10.875 83.4545 10.875 77.9545Q10.875 76.2201 11.0156 75.3295Q11.2031 73.5951 11.4219 72.0951Q11.6406 70.5951 11.7812 69.3139L12.3594 64.7045Q12.4219 64.3139 12.4219 63.6108Q12.4219 61.4389 11.0312 60.4545Q9.65625 59.4545 6.71875 59.4545Q4.98438 59.4545 4.09375 58.2045Q3.20312 56.9545 3.39062 55.2358Q3.84375 51.8451 7.29688 51.8451Q10.8125 51.8451 12.6094 50.5951Q14.4062 49.3451 14.8438 46.2045Q14.9062 45.892 15.8125 38.5951L16.1875 35.2045Q16.9531 29.5014 20.7031 26.6889Q24.4531 23.8764 30.5938 23.8764ZM35.4538 93.5014Q34.0475 93.5014 33.2194 92.8608Q32.3913 92.2201 32.3913 90.8139Q32.3913 90.2358 32.5788 89.4701Q33.2819 86.5326 33.6256 84.0326Q33.985 81.5326 33.985 78.4701Q33.985 75.267 35.485 73.5483Q36.985 71.8139 39.36 71.8139Q41.6569 71.8139 42.8444 73.0639Q44.0319 74.2983 44.0319 76.4233Q44.0319 78.6576 42.6881 82.3764Q41.3444 86.0795 39.4225 89.5951Q38.1413 91.9701 37.4069 92.7358Q36.6725 93.5014 35.4538 93.5014ZM41.0788 65.4701Q38.2663 65.4701 36.8288 63.9389Q35.3913 62.4076 35.3913 59.9076Q35.3913 57.0326 37.0163 55.3139Q38.6569 53.5795 41.5944 53.5795Q44.4069 53.5795 45.8444 54.9545Q47.2975 56.3295 47.2975 59.017Q47.2975 61.9545 45.6256 63.7201Q43.9694 65.4701 41.0788 65.4701ZM76.9317 51.9076Q78.6505 51.9076 79.5411 53.1576Q80.4474 54.4076 80.2599 56.1264Q79.8067 59.517 76.3536 59.517Q72.838 59.517 71.0411 60.767Q69.2442 62.017 68.8067 65.1576Q68.4161 68.0951 67.588 75.0795L67.1974 78.142Q66.4317 83.8451 62.6818 86.6576Q58.9474 89.4701 52.8068 89.4701Q49.2755 89.4701 47.8068 88.642Q46.338 87.8139 46.338 85.4389Q46.338 84.1576 47.4005 83.267Q48.4474 82.3608 50.3068 82.3608Q53.4474 82.3608 55.2286 81.767Q57.0255 81.1576 57.8224 79.8764Q58.6193 78.5951 58.8224 76.4233Q59.0724 72.767 60.0255 66.1108L60.2911 63.9389Q61.0568 57.9858 66.6817 55.6108Q62.588 53.6889 62.588 48.2514Q62.588 47.6108 62.713 46.0795Q63.1661 42.7514 63.2286 42.5639Q63.7443 39.1108 63.9318 37.0639Q63.9943 36.6108 63.9943 35.8451Q63.9943 33.2201 62.463 32.2045Q60.9318 31.1733 56.963 31.1733Q55.1661 31.1733 54.0724 30.2201Q52.9943 29.2514 52.9943 27.8451Q52.9943 25.8608 54.588 24.8764Q56.1974 23.8764 60.0255 23.8764Q66.4317 23.8764 69.463 26.892Q72.5099 29.892 72.5099 35.392Q72.5099 37.1264 72.3849 38.017Q72.2599 39.3608 71.8067 42.7514Q71.7442 43.3295 71.2911 46.6576Q71.2286 47.0326 71.2286 47.7514Q71.2286 49.9233 72.6036 50.9233Q73.9786 51.9076 76.9317 51.9076Z" />
        </g>
      </g>
    </g>
  </g>
</svg>
